<?xml version="1.0" standalone="no"?><!DOCTYPE svg PUBLIC "-//W3C//DTD SVG 1.1//EN" "http://www.w3.org/Graphics/SVG/1.1/DTD/svg11.dtd"><svg t="1615441270082" class="icon" viewBox="0 0 1024 1024" version="1.1" xmlns="http://www.w3.org/2000/svg" p-id="8001" xmlns:xlink="http://www.w3.org/1999/xlink" width="200" height="200"><defs><style type="text/css"></style></defs><path d="M120 496c0 137.2 73.2 264 192 332.6 118.8 68.6 265.2 68.6 384 0C814.8 760 888 633.2 888 496c0-137.2-73.2-264-192-332.6-118.8-68.6-265.2-68.6-384 0C193.2 232.1 120 358.8 120 496z m0 0" fill="#E9EAEB" p-id="8002"></path><path d="M488 0h32v224h-32V0zM238.8 61.9l27.7-16 116.3 201.5-27.7 16L238.8 61.9zM59.9 255.2l16-27.7 201.5 116.3-16 27.7L59.9 255.2zM8 480.1h224v32H8v-32z m55.3 255.8l201.5-116.3 16 27.7L79.3 763.6l-16-27.7z m679.3-94.7l16-27.7 201.5 116.3-16 27.7-201.5-116.3zM792 480.1h224v32H792v-32z m-52.9-142.4l201.5-116.3 16 27.7L755 365.4l-15.9-27.7zM631 243.9L747.3 42.4l27.7 16-116.3 201.5-27.7-16z m0 0" fill="#2A5082" p-id="8003"></path><path d="M408.5 189.6l30.9-8.3 11.1 41.6-30.9 8.3-11.1-41.6zM270.7 281l22.6-22.6 30.4 30.4-22.6 22.6-30.4-30.4z m-73.8 147.7l8.3-30.9 41.6 11.1-8.3 30.9-41.6-11.1z m1.8 134.2l41.6-11.1 8.3 30.9-41.6 11.1-8.3-30.9z m76.9 146.2l30.4-30.4 22.6 22.6-30.4 30.4-22.6-22.6z m420.6-12.8l22.6-22.6 30.4 30.4-22.6 22.6-30.4-30.4z m80.2-122.8l8.3-31 41.8 11.2-8.3 31-41.8-11.2z m-5.1-171.2l41.6-11.1 8.3 30.9-41.6 11.1-8.3-30.9z m-80.1-118.6l30.4-30.4 22.6 22.6-30.4 30.4-22.6-22.6zM562.5 221l11.1-41.6 30.9 8.3-11.1 41.6-30.9-8.3z m0 0" fill="#BCC0C4" p-id="8004"></path><path d="M523.1 272.3c-95.6-4.6-184.2 50-223.1 137.5-38.8 87.5-19.9 189.8 47.7 257.7 28 27.4 43.9 64.8 44.2 103.9V800H632v-28.7c-0.2-38.2 15.1-74.9 42.3-101.8 44.6-43.4 69.8-102.9 69.9-165.1-0.8-123.7-97.6-225.4-221.1-232.1z m0 0" fill="#A3D4FF" p-id="8005"></path><path d="M648 800h-32v-28.7c0-42.5 16.9-83.3 47.2-113.2 41.5-40.3 64.9-95.8 64.9-153.7-0.9-115-90.9-209.6-205.7-216.1-89-4.3-171.5 46.5-207.7 128-36.3 81.4-18.6 176.7 44.3 239.8 31.1 30.3 48.7 71.8 49.1 115.2V800h-32.4v-28.7c-0.4-34.9-14.7-68.3-39.7-92.7-72.2-72.6-92.4-182-50.8-275.5 41.6-93.5 136.4-151.9 238.6-146.9 131.8 7.6 235.1 116.1 236.2 248.1 0 66.5-26.9 130.2-74.7 176.5-24 23.9-37.5 56.4-37.4 90.3l0.1 28.9z m0 0" fill="#2A5082" p-id="8006"></path><path d="M372 438.4l-29.5-12.8c23-52.6 70.1-90.6 126.3-102l6.3 31.3c-45.8 9.4-84.3 40.5-103.1 83.5zM360 496h-32c0-11.8 1.1-23.6 3.5-35.2l31.3 6.4c-1.9 9.5-2.8 19.2-2.8 28.8z m182.6 528h-61.3l-32-32H424v-32h38.6l32 32h34.7l32-32H600v32h-25.4l-32 32zM376 832h272v32H376v-32z m0 64h272v32H376v-32z m192-192h-32v-95.8h-48V704h-32v-95.8h-14.7c-12.3 0.2-24.3-4.5-33.1-13.2s-13.7-20.5-13.7-32.9c0.2-25.8 21.3-46.6 47.1-46.4 25.8 0.2 46.6 21.2 46.4 47.1v13.5h48v-13.8c0-25.8 20.9-46.7 46.7-46.7 16.9-0.7 32.8 8 41.5 22.5 8.7 14.5 8.7 32.7 0 47.2s-24.6 23.2-41.5 22.5H568v96z m0-128h14.7c5.3 0.4 10.3-2.2 13.1-6.7 2.8-4.5 2.8-10.2 0-14.7s-7.8-7.1-13.1-6.7c-8.1 0-14.7 6.6-14.7 14.7V576z m-126.7-28.5c-8.1 0-14.7 6.6-14.7 14.7 0.1 3.8 1.7 7.5 4.4 10.1s6.5 4.1 10.3 4H456v-13.8c0.1-4-1.4-7.8-4.2-10.6-2.8-2.8-6.6-4.4-10.5-4.4z m0 0" fill="#2A5082" p-id="8007"></path></svg>